# xmcd
#
# Track frame offsets:
#	150
#	25937
#	51910
#	75697
#	90980
#	117547
#	151907
#	181890
#	208780
#	237915
#
# Disc length: 3483 seconds
#
# Revision: 1
# Processed by: cddbd v1.5.1PL0 Copyright (c) Steve Scherf et al.
# Submitted via: CDex 1.50Beta5
#
DISCID=7a0d990a
DTITLE=SABRINA - ダンス・ダンス・ダンス
DYEAR=1988
DGENRE=Rock
TTITLE0=SABRINA/ボーイズ
TTITLE1=メッカーノ/エクストラ
TTITLE2=ルイス/ロックでチャチャチャ
TTITLE3=SABRINA/セクシー・ガール
TTITLE4=JG’S,THE/セット・ザ・ファイヤー
TTITLE5=モーガナ/レディ・フォー・ラブ
TTITLE6=モナ・リサ/クイーン・オブ・ラブ
TTITLE7=イマージュ/ラブ・エモーション
TTITLE8=ノベチェント/チェンジズ
TTITLE9=メッカーノ/ドント・クライ・エニイモア
EXTD=
EXTT0=
EXTT1=
EXTT2=
EXTT3=
EXTT4=
EXTT5=
EXTT6=
EXTT7=
EXTT8=
EXTT9=
PLAYORDER=
